<svg width="357" height="250" viewBox="0 0 357 250" fill="none" xmlns="http://www.w3.org/2000/svg">
<rect width="357" height="250" fill="#F0F0F0"/>
<path d="M240.912 50.0079H117.096C107.116 50.0079 99 58.1212 99 68.1133V181.908C99 191.888 107.116 199.993 117.096 199.993H240.912C250.892 199.993 258.999 191.888 258.999 181.908V68.1133C259 58.1212 250.893 50.0079 240.912 50.0079ZM202.464 76.9341C212.116 76.9341 219.943 84.7619 219.943 94.4129C219.943 104.064 212.115 111.892 202.464 111.892C192.81 111.892 184.985 104.064 184.985 94.4129C184.985 84.7619 192.81 76.9341 202.464 76.9341ZM235.237 183.265H178.998H125.265C120.438 183.265 118.288 179.772 120.464 175.463L150.461 116.049C152.635 111.741 156.777 111.356 159.71 115.189L189.873 154.607C192.807 158.441 197.934 158.767 201.328 155.333L208.707 147.861C212.097 144.426 217.094 144.851 219.861 148.804L238.969 176.098C241.731 180.057 240.064 183.265 235.237 183.265Z" fill="#DCDCDC"/>
</svg>
