<svg width="1920" height="770" viewBox="0 0 1920 770" fill="none" xmlns="http://www.w3.org/2000/svg">
<g opacity="0.9">
<rect width="1920" height="770" fill="#F0F0F0"/>
<path d="M1111.68 201.269H808.336C783.884 201.269 764 221.147 764 245.628V524.424C764 548.876 783.884 568.732 808.336 568.732H1111.68C1136.14 568.732 1156 548.876 1156 524.424V245.628C1156 221.147 1136.14 201.269 1111.68 201.269ZM1017.49 267.239C1041.13 267.239 1060.31 286.417 1060.31 310.062C1060.31 333.707 1041.13 352.885 1017.49 352.885C993.834 352.885 974.664 333.707 974.664 310.062C974.664 286.417 993.834 267.239 1017.49 267.239ZM1097.78 527.749H959.996H828.35C816.523 527.749 811.256 519.192 816.587 508.635L890.08 363.07C895.405 352.515 905.553 351.573 912.74 360.964L986.639 457.538C993.826 466.931 1006.39 467.73 1014.7 459.315L1032.78 441.008C1041.09 432.593 1053.33 433.635 1060.11 443.32L1106.92 510.19C1113.69 519.89 1109.61 527.749 1097.78 527.749Z" fill="#DCDCDC"/>
</g>
</svg>
