<svg width="24" height="24" viewBox="0 0 24 24" fill="none" xmlns="http://www.w3.org/2000/svg">
<path d="M11.9998 22.0004C11.9998 22.0004 3.99982 17.5004 3.99982 10.2004C3.97312 9.13311 4.16033 8.07128 4.5504 7.07747C4.94047 6.08367 5.52552 5.17799 6.27106 4.41381C7.0166 3.64962 7.90756 3.0424 8.89144 2.62791C9.87531 2.21343 10.9322 2.00006 11.9998 2.0004C13.0674 2.00006 14.1243 2.21343 15.1082 2.62791C16.0921 3.0424 16.983 3.64962 17.7286 4.41381C18.4741 5.17799 19.0592 6.08367 19.4492 7.07747C19.8393 8.07128 20.0265 9.13311 19.9998 10.2004C19.9998 17.5004 11.9998 22.0004 11.9998 22.0004Z" stroke="#999999" stroke-width="2" stroke-linecap="round" stroke-linejoin="round"/>
<path d="M12 12.9996C13.6569 12.9996 15 11.6565 15 9.9996C15 8.34275 13.6569 6.9996 12 6.9996C10.3431 6.9996 9 8.34275 9 9.9996C9 11.6565 10.3431 12.9996 12 12.9996Z" stroke="#999999" stroke-width="2" stroke-linecap="round" stroke-linejoin="round"/>
</svg>
