<svg width="194" height="50" viewBox="0 0 194 50" fill="none" xmlns="http://www.w3.org/2000/svg">
<circle cx="25" cy="25" r="25" fill="#999999"/>
<g clip-path="url(#clip0_4_591)">
<g filter="url(#filter0_i_4_591)">
<path d="M32.3563 13.3179C31.6274 13.1093 30.8757 12.9934 30.0784 12.9934C25.6821 12.9934 22.1285 16.6093 22.1285 21.0828C22.1285 21.5464 22.1285 22.1026 22.1513 22.7517V35.8709C22.1513 37.6093 20.7618 39 19.0761 39C17.3677 39 16.001 37.5861 16.001 35.8709V21.1755C16.001 15.5662 20.4884 11 26.001 11C28.4156 11 30.6251 11.8808 32.3563 13.3179Z" fill="url(#paint0_linear_4_591)"/>
</g>
<g filter="url(#filter1_i_4_591)">
<path d="M36.0011 20.9206V21.1755C36.0011 21.2914 36.0011 21.3842 35.9783 21.4769C35.6822 26.8312 31.3086 31.0961 25.9783 31.0961C24.2699 31.0961 22.9031 29.6822 22.9031 27.9669C22.9031 26.2285 24.2927 24.8378 25.9783 24.8378C28.0512 24.8378 29.7596 23.1457 29.8052 21.0596C29.7369 18.9736 28.0512 17.2815 25.9783 17.2815C24.771 17.2815 23.6776 17.861 22.9715 18.7649C22.4476 19.4371 22.1514 20.2716 22.1514 21.1987V22.7749C22.1287 22.1259 22.1287 21.5696 22.1287 21.106C22.1287 16.6325 25.6822 13.0166 30.0785 13.0166C30.8758 13.0166 31.6275 13.1325 32.3565 13.3411C34.4521 15.1027 35.8416 17.6987 36.0011 20.6424C36.0011 20.712 36.0011 20.8279 36.0011 20.9206Z" fill="url(#paint1_linear_4_591)"/>
</g>
</g>
<path d="M73.7491 13.442C75.9872 13.442 77.8523 14.19 79.3444 15.686C80.8591 17.182 81.6164 19.0407 81.6164 21.262C81.6164 23.4607 80.8591 25.3193 79.3444 26.838C77.8523 28.334 75.9872 29.082 73.7491 29.082H68.8998V37.242H65V13.442H73.7491ZM73.7491 25.41C74.902 25.41 75.8516 25.0247 76.5976 24.254C77.3436 23.4607 77.7167 22.4633 77.7167 21.262C77.7167 20.0607 77.3436 19.0747 76.5976 18.304C75.8516 17.5107 74.902 17.114 73.7491 17.114H68.8998V25.41H73.7491Z" fill="#999999"/>
<path d="M98.4205 37.242L96.7588 32.448H86.6533L84.9917 37.242H80.7528L89.3662 13.442H94.0459L102.625 37.242H98.4205ZM87.9419 28.776H95.4702L91.7061 18.032L87.9419 28.776Z" fill="#999999"/>
<path d="M119.258 13.442V17.182H112.577V37.242H108.678V17.182H101.963V13.442H119.258Z" fill="#999999"/>
<path d="M136.011 37.242L130.992 28.572H126.38V37.242H122.481V13.442H131.976C134.101 13.442 135.898 14.19 137.368 15.686C138.86 17.1593 139.606 18.9613 139.606 21.092C139.606 22.6107 139.165 24.0047 138.283 25.274C137.424 26.5207 136.294 27.4273 134.892 27.994L140.284 37.242H136.011ZM126.38 17.114V25.07H131.976C133.016 25.07 133.897 24.6847 134.621 23.914C135.344 23.1433 135.706 22.2027 135.706 21.092C135.706 19.9813 135.344 19.0407 134.621 18.27C133.897 17.4993 133.016 17.114 131.976 17.114H126.38Z" fill="#999999"/>
<path d="M143.617 13.442H147.517V37.242H143.617V13.442Z" fill="#999999"/>
<path d="M172.437 34.114C170.064 36.494 167.158 37.684 163.722 37.684C160.286 37.684 157.369 36.494 154.973 34.114C152.599 31.7113 151.412 28.7873 151.412 25.342C151.412 21.8967 152.599 18.984 154.973 16.604C157.369 14.2013 160.286 13 163.722 13C167.158 13 170.064 14.2013 172.437 16.604C174.834 18.984 176.032 21.8967 176.032 25.342C176.032 28.7873 174.834 31.7113 172.437 34.114ZM157.72 31.462C159.348 33.0713 161.348 33.876 163.722 33.876C166.096 33.876 168.085 33.0713 169.691 31.462C171.318 29.83 172.132 27.79 172.132 25.342C172.132 22.894 171.318 20.8653 169.691 19.256C168.085 17.624 166.096 16.808 163.722 16.808C161.348 16.808 159.348 17.624 157.72 19.256C156.115 20.8653 155.312 22.894 155.312 25.342C155.312 27.79 156.115 29.83 157.72 31.462Z" fill="#999999"/>
<path d="M194 13.442V17.182H187.32V37.242H183.42V17.182H176.705V13.442H194Z" fill="#999999"/>
<defs>
<filter id="filter0_i_4_591" x="16.001" y="11" width="16.3553" height="28" filterUnits="userSpaceOnUse" color-interpolation-filters="sRGB">
<feFlood flood-opacity="0" result="BackgroundImageFix"/>
<feBlend mode="normal" in="SourceGraphic" in2="BackgroundImageFix" result="shape"/>
<feColorMatrix in="SourceAlpha" type="matrix" values="0 0 0 0 0 0 0 0 0 0 0 0 0 0 0 0 0 0 127 0" result="hardAlpha"/>
<feOffset dx="-0.5" dy="-0.5"/>
<feComposite in2="hardAlpha" operator="arithmetic" k2="-1" k3="1"/>
<feColorMatrix type="matrix" values="0 0 0 0 0.883333 0 0 0 0 0.926449 0 0 0 0 1 0 0 0 1 0"/>
<feBlend mode="normal" in2="shape" result="effect1_innerShadow_4_591"/>
</filter>
<filter id="filter1_i_4_591" x="22.1287" y="13.0166" width="13.8724" height="18.0795" filterUnits="userSpaceOnUse" color-interpolation-filters="sRGB">
<feFlood flood-opacity="0" result="BackgroundImageFix"/>
<feBlend mode="normal" in="SourceGraphic" in2="BackgroundImageFix" result="shape"/>
<feColorMatrix in="SourceAlpha" type="matrix" values="0 0 0 0 0 0 0 0 0 0 0 0 0 0 0 0 0 0 127 0" result="hardAlpha"/>
<feOffset dx="-0.5" dy="-0.5"/>
<feComposite in2="hardAlpha" operator="arithmetic" k2="-1" k3="1"/>
<feColorMatrix type="matrix" values="0 0 0 0 0.883333 0 0 0 0 0.926449 0 0 0 0 1 0 0 0 1 0"/>
<feBlend mode="normal" in2="shape" result="effect1_innerShadow_4_591"/>
</filter>
<linearGradient id="paint0_linear_4_591" x1="21.1556" y1="12.523" x2="26.2901" y2="38.584" gradientUnits="userSpaceOnUse">
<stop stop-color="white"/>
<stop offset="0.484375" stop-color="#F2F2F2"/>
<stop offset="1" stop-color="#ACACAC"/>
</linearGradient>
<linearGradient id="paint1_linear_4_591" x1="26.5007" y1="14" x2="29.0649" y2="31.0961" gradientUnits="userSpaceOnUse">
<stop stop-color="#BCBCBC"/>
<stop offset="0.484375" stop-color="white"/>
<stop offset="1" stop-color="white"/>
</linearGradient>
<clipPath id="clip0_4_591">
<rect width="20" height="28" fill="white" transform="translate(16.001 11)"/>
</clipPath>
</defs>
</svg>
